<?xml version="1.0" standalone="no"?>
<!DOCTYPE svg PUBLIC "-//W3C//DTD SVG 20010904//EN"
 "http://www.w3.org/TR/2001/REC-SVG-20010904/DTD/svg10.dtd">
<svg version="1.0" xmlns="http://www.w3.org/2000/svg"
 width="984.000000pt" height="984.000000pt" viewBox="0 0 984.000000 984.000000"
 preserveAspectRatio="xMidYMid meet">
<metadata>
Created by potrace 1.11, written by Peter Selinger 2001-2013
</metadata>
<g transform="translate(0.000000,984.000000) scale(0.100000,-0.100000)"
fill="#000000" stroke="none">
<path d="M8272 9826 c-196 -64 -239 -275 -81 -392 84 -61 210 -72 308 -27 41
19 121 97 121 118 0 8 4 15 9 15 5 0 8 30 7 68 -3 98 -42 154 -145 207 -46 23
-163 29 -219 11z"/>
<path d="M7578 9405 c-2 -2 -21 -7 -42 -11 -48 -7 -115 -36 -141 -60 -28 -25
-69 -84 -72 -104 -16 -89 1 -152 58 -208 150 -151 452 -77 476 117 8 65 4 83
-28 139 -34 58 -110 105 -191 117 -24 4 -45 8 -49 11 -3 2 -8 1 -11 -1z"/>
<path d="M3577 9383 c-2 -1 -124 -5 -272 -8 -277 -6 -313 -8 -425 -19 -172
-17 -315 -42 -507 -90 -34 -9 -188 -64 -233 -84 -81 -35 -145 -66 -150 -71 -3
-3 -26 -17 -52 -31 -27 -13 -48 -28 -48 -32 0 -5 -6 -8 -13 -8 -7 0 -23 -9
-35 -20 -12 -11 -25 -20 -31 -20 -5 0 -11 -3 -13 -8 -1 -4 -32 -30 -68 -58
-62 -50 -148 -136 -218 -220 -79 -94 -232 -346 -232 -382 0 -7 -4 -12 -10 -12
-5 0 -10 -8 -10 -18 0 -10 -3 -22 -7 -26 -13 -13 -45 -100 -50 -136 -6 -45 26
-80 89 -100 24 -8 49 -18 57 -24 8 -6 16 -10 17 -9 15 9 273 -121 373 -187 77
-52 209 -170 246 -221 40 -55 59 -85 86 -139 77 -156 101 -301 90 -550 -6
-127 27 -215 98 -265 l43 -30 696 -1 c773 -2 756 -3 767 60 3 17 7 123 9 236
4 220 3 219 42 343 35 110 118 283 154 317 3 3 17 21 31 40 38 50 127 141 174
175 22 17 42 32 45 35 13 13 120 78 165 100 28 14 53 30 57 35 4 6 8 6 8 2 0
-5 12 -1 28 7 40 23 165 70 266 101 99 30 136 58 132 99 -2 14 0 26 3 26 3 0
6 11 6 25 0 14 -4 25 -8 25 -5 0 -5 5 -1 11 4 6 8 249 10 539 l3 528 -26 26
c-14 14 -33 26 -42 27 -124 7 -278 10 -719 12 -288 1 -524 2 -525 0z m-232
-183 c42 9 1309 10 1342 1 l26 -7 -2 -324 c-1 -178 -3 -394 -4 -479 l-2 -155
-70 -22 c-39 -12 -104 -36 -145 -53 -41 -17 -79 -31 -83 -31 -5 0 -21 -8 -35
-18 -15 -10 -43 -25 -62 -32 -19 -8 -37 -17 -40 -20 -3 -4 -30 -21 -60 -39
-76 -44 -115 -73 -184 -134 -32 -29 -62 -54 -65 -57 -4 -3 -34 -37 -67 -75
-114 -135 -198 -294 -254 -483 -40 -134 -41 -147 -43 -324 -1 -102 -5 -158
-12 -158 -5 -1 -284 -1 -619 -2 l-609 -1 -12 23 c-6 12 -11 45 -9 73 8 172 -3
377 -21 407 -2 4 -7 21 -10 40 -25 144 -138 342 -268 473 -132 132 -338 260
-579 359 l-58 24 52 104 c28 58 55 107 59 108 5 2 9 9 9 15 0 32 186 267 271
342 61 54 137 115 142 115 3 0 32 18 65 40 85 56 276 144 362 165 3 1 12 5 20
8 25 10 123 36 155 41 17 2 31 5 33 6 4 4 60 15 132 25 14 2 39 6 55 9 94 16
251 28 382 30 51 0 93 4 93 7 0 3 19 3 43 -1 23 -3 56 -3 72 0z"/>
<path d="M5073 8778 c3 -293 5 -534 6 -535 4 -7 40 -8 59 -1 12 4 22 4 22 0 0
-8 362 -7 385 1 8 4 15 3 15 -2 0 -8 61 1 92 14 38 15 42 64 40 492 -1 358 -3
417 -17 447 -19 40 -47 53 -130 61 -107 10 -194 20 -265 29 -19 3 -62 7 -95
11 -33 3 -73 8 -88 11 l-28 4 4 -532z"/>
<path d="M8336 8983 c-2 -2 -20 -6 -40 -9 -69 -8 -151 -68 -182 -133 -18 -36
-27 -117 -15 -136 3 -5 6 -15 7 -22 3 -17 44 -74 69 -95 80 -68 227 -84 322
-36 59 30 78 47 114 98 19 28 24 47 24 100 -1 70 -15 108 -60 152 -32 32 -105
69 -146 74 -16 2 -42 6 -59 8 -16 2 -31 1 -34 -1z"/>
<path d="M6729 8950 c-116 -32 -193 -120 -192 -221 0 -49 27 -113 62 -148 31
-31 104 -68 152 -76 151 -27 307 62 325 185 9 65 9 64 -10 114 -43 113 -203
182 -337 146z"/>
<path d="M7500 8511 c-126 -45 -192 -119 -192 -218 0 -63 18 -101 72 -153 60
-58 118 -80 212 -77 273 9 359 313 122 428 -25 12 -69 23 -97 26 -29 2 -56 5
-62 7 -5 2 -30 -4 -55 -13z"/>
<path d="M8295 8109 c-94 -15 -153 -52 -206 -128 -29 -44 -32 -138 -5 -190 81
-153 332 -187 454 -61 60 62 59 61 69 140 12 105 -90 219 -212 237 -16 2 -34
5 -40 7 -5 1 -33 -1 -60 -5z"/>
<path d="M4775 7681 c-99 -34 -171 -68 -222 -102 -23 -16 -44 -29 -47 -29 -3
0 -16 -9 -28 -21 -122 -112 -183 -188 -236 -295 -33 -65 -94 -235 -87 -242 2
-2 73 -6 157 -8 160 -4 198 -8 198 -24 0 -5 27 -52 60 -105 33 -53 60 -98 60
-100 0 -2 32 -53 70 -114 39 -60 70 -115 70 -120 0 -6 3 -11 8 -11 4 0 16 -17
27 -37 11 -21 32 -56 46 -78 14 -22 35 -56 45 -75 10 -19 21 -37 24 -40 3 -3
36 -57 74 -120 92 -153 130 -198 185 -223 66 -29 110 -25 163 15 48 36 67 80
65 148 -2 50 -10 68 -76 179 -41 69 -87 149 -102 178 -16 30 -34 62 -41 70 -7
9 -12 18 -10 20 1 2 -13 36 -32 76 -18 39 -48 110 -66 157 -18 47 -37 96 -42
110 -6 14 -14 34 -19 45 -7 18 -45 139 -54 175 -3 8 -9 33 -15 55 -6 22 -13
47 -14 55 -2 8 -8 33 -14 55 -12 43 -41 182 -49 230 -2 17 -6 39 -8 50 -6 30
-14 76 -20 113 -7 36 -3 36 -70 13z"/>
<path d="M2483 6340 c-170 -6 -169 -5 -214 -85 -30 -54 -191 -378 -219 -440
-12 -27 -31 -68 -42 -90 -11 -22 -24 -51 -28 -65 -5 -14 -27 -70 -50 -125 -23
-55 -57 -143 -77 -195 -19 -52 -37 -102 -40 -110 -4 -8 -7 -17 -8 -20 -4 -19
-58 -179 -65 -195 -8 -19 -41 -126 -46 -151 -1 -6 -9 -37 -18 -68 -9 -31 -16
-57 -16 -58 1 -2 -4 -16 -10 -33 -7 -16 -13 -39 -15 -50 -1 -11 -8 -40 -15
-65 -7 -25 -13 -52 -15 -60 -2 -8 -11 -46 -20 -85 -9 -38 -18 -81 -20 -95 -1
-14 -8 -43 -14 -65 -6 -22 -13 -58 -16 -80 -4 -22 -8 -48 -11 -58 -6 -18 -13
-60 -18 -107 -3 -27 -16 -102 -22 -135 -3 -11 -7 -42 -9 -70 -3 -27 -7 -57
-10 -65 -2 -8 -7 -44 -10 -80 -3 -36 -8 -76 -10 -90 -5 -30 -14 -125 -20 -220
-3 -36 -7 -96 -10 -135 -5 -71 -17 -401 -16 -442 1 -39 2 -81 1 -130 -1 -69 9
-354 15 -448 11 -168 16 -232 20 -275 2 -25 7 -76 10 -115 3 -38 7 -80 10 -93
2 -13 7 -53 10 -90 4 -37 9 -78 12 -92 2 -14 6 -38 7 -55 4 -32 17 -130 21
-155 1 -8 6 -35 10 -60 4 -25 9 -52 10 -60 2 -8 6 -35 9 -60 3 -25 8 -56 11
-70 3 -14 7 -38 10 -55 7 -45 15 -87 21 -115 3 -14 8 -40 10 -58 2 -18 6 -43
10 -55 4 -12 8 -32 10 -44 9 -83 70 -217 152 -333 45 -63 186 -210 203 -210 4
0 14 -7 23 -15 22 -23 153 -91 227 -119 73 -27 204 -60 289 -73 30 -4 575 -8
1210 -8 l1155 0 79 23 c43 12 103 34 132 47 30 14 57 24 60 24 4 0 10 3 13 8
3 4 26 21 50 37 61 39 186 167 242 246 76 107 182 328 204 425 2 11 11 45 20
75 15 53 18 65 30 120 11 52 15 71 20 93 3 12 7 45 10 72 3 28 7 57 10 65 4
14 10 60 21 165 28 261 21 855 -11 1020 -2 11 -8 35 -14 53 -5 17 -7 32 -4 32
3 0 1 6 -4 13 -6 6 -13 24 -17 39 -3 14 -15 47 -26 72 -11 26 -20 50 -22 54
-1 4 -21 42 -45 85 -24 42 -43 81 -43 86 0 5 -7 14 -15 21 -9 7 -22 27 -31 45
-8 18 -23 41 -32 51 -9 11 -32 42 -51 69 -33 48 -193 249 -244 307 -150 170
-200 223 -591 619 -176 179 -350 359 -386 399 -36 40 -74 82 -85 94 -85 91
-105 155 -101 323 2 65 4 118 5 118 1 0 4 32 7 70 2 39 7 81 9 95 3 14 8 48
11 75 3 28 7 64 10 80 2 17 7 57 10 90 3 33 7 66 10 74 10 29 18 181 18 326
-1 147 -5 200 -24 264 -5 17 -10 35 -11 39 -8 30 -13 44 -41 100 -59 120 -169
189 -333 208 -64 7 -1022 11 -1222 4z m1226 -184 c98 -20 184 -106 207 -208 2
-10 6 -28 9 -40 3 -13 8 -34 11 -48 6 -31 5 -245 -2 -320 -3 -30 -7 -75 -9
-100 -2 -25 -5 -45 -5 -45 -2 0 -7 -40 -14 -115 -4 -50 -9 -86 -21 -160 -3
-13 -7 -56 -10 -95 -4 -38 -8 -83 -10 -100 -8 -57 -5 -250 4 -305 19 -114 57
-181 172 -302 20 -21 35 -38 32 -38 -5 0 163 -172 447 -460 362 -365 596 -617
586 -628 -2 -2 -21 5 -43 16 -92 46 -320 123 -403 136 -19 3 -46 8 -60 11 -61
13 -80 15 -170 22 -134 10 -333 5 -416 -11 -11 -2 -41 -7 -68 -10 -28 -4 -82
-14 -120 -22 -39 -9 -82 -18 -96 -20 -14 -3 -43 -10 -65 -16 -22 -5 -47 -11
-55 -13 -8 -2 -103 -28 -210 -59 -107 -31 -202 -58 -210 -60 -8 -2 -58 -16
-110 -31 -52 -15 -102 -28 -110 -30 -8 -2 -35 -8 -60 -15 -25 -7 -52 -13 -60
-15 -8 -2 -34 -8 -57 -14 -23 -6 -45 -11 -50 -10 -4 1 -10 0 -13 -1 -28 -11
-176 -35 -275 -45 -27 -3 -68 -8 -90 -11 -50 -7 -375 -7 -430 0 -22 3 -67 8
-100 12 -33 3 -67 10 -76 15 -9 4 -19 6 -21 3 -3 -2 -39 3 -81 12 l-76 17 4
106 c6 123 16 258 29 376 4 28 9 77 12 109 3 33 7 67 9 76 2 9 6 41 10 71 3
30 11 83 17 119 5 36 12 81 15 100 3 19 13 75 23 125 10 49 16 93 14 97 -3 5
0 8 6 8 6 0 9 4 6 8 -2 4 5 46 16 92 21 90 26 113 32 145 6 34 66 256 93 344
14 47 26 89 28 95 1 6 5 18 8 26 6 17 30 90 33 105 2 6 17 48 34 95 17 47 32
90 34 95 2 6 7 19 11 30 4 11 30 76 57 145 28 69 58 143 68 165 10 22 32 74
50 115 43 98 157 329 171 346 6 8 9 14 5 14 -3 0 5 18 19 40 14 22 25 44 25
49 0 5 8 11 17 13 33 6 1249 1 1282 -6z"/>
</g>
</svg>
